<svg xmlns="http://www.w3.org/2000/svg" width="161" height="50" viewBox="0 0 207 64"><path fill="#0064c8" d="M8.964 55.216V8.157c0-2.241 1.345-4.034 3.048-4.034h2.779c1.703 0 3.048 1.793 3.048 4.034v47.148H8.965z"/><path fill="#008cf0" d="M26.891 55.216V4.034C26.891 1.793 25.546 0 23.843 0h-2.779c-1.703 0-3.137 1.793-3.137 4.034v51.182h8.964z"/><path fill="#004696" d="M4.661 55.216h4.302V31.731c0-2.241-1.345-4.034-3.048-4.034H3.047c-1.703 0-3.048 1.793-3.048 4.034v18.913c0 2.51 2.062 4.571 4.661 4.571z"/><path fill="#00c9ff" d="M35.854 55.216V8.157c0-2.241-1.345-4.034-3.137-4.034h-2.779c-1.703 0-3.048 1.793-3.048 4.034v47.148h8.964z"/><path fill="#00f5ff" d="M41.77 10.308h-2.779c-1.703 0-3.048 1.793-3.048 4.034v40.874h4.303a4.63 4.63 0 0 0 4.661-4.661V14.073c-.179-2.151-1.524-3.765-3.137-3.765z"/><path fill="#004696" d="M62.745 27.608h9.501c1.434 0 2.779.179 3.854.538s2.062.896 2.779 1.524c.717.627 1.345 1.434 1.703 2.241.359.896.538 1.793.538 2.868 0 .986-.179 1.793-.538 2.51s-.807 1.345-1.255 1.793c-.448.448-.986.807-1.434 1.076s-.896.359-1.165.359c.538.09 1.076.179 1.703.448s1.255.627 1.882 1.165 1.076 1.165 1.524 2.062c.448.807.627 1.882.627 3.048 0 1.524-.269 2.779-.807 3.765a7 7 0 0 1-2.151 2.42c-.896.627-1.972 1.076-3.227 1.345s-2.599.359-4.034.359h-9.501V27.611zm9.233 11.025c.538 0 1.076-.09 1.524-.179.538-.09.986-.269 1.345-.538s.717-.627.986-1.076c.269-.448.359-.896.359-1.613 0-.627-.09-1.165-.359-1.613s-.538-.717-.986-.986c-.359-.269-.807-.448-1.345-.538s-.986-.179-1.524-.179h-4.213v6.543h4.213zm.179 12.191c.538 0 1.076 0 1.613-.09.627-.09 1.165-.269 1.703-.538s.986-.627 1.345-1.165.538-1.165.538-2.062c0-.807-.179-1.524-.538-1.972a3.831 3.831 0 0 0-1.255-1.165c-.538-.269-1.076-.448-1.703-.627-.538-.179-1.165-.179-1.703-.179h-4.392v7.798h4.392zM85.692 27.608h5.199v5.109h-5.199v-5.109zm.179 8.246h4.84v19.451h-4.84V35.854zM97.882 58.443c.807.538 1.613.896 2.51 1.165s1.972.359 3.137.359c1.255 0 2.331-.359 3.227-1.165s1.255-1.882 1.255-3.227v-2.151c-.627.538-1.345.986-2.151 1.345s-1.793.538-3.137.538c-1.434 0-2.689-.269-3.765-.717s-2.062-1.165-2.779-1.972c-.807-.807-1.345-1.793-1.793-2.958-.359-1.165-.627-2.42-.627-3.765 0-1.434.269-2.779.807-4.034s1.255-2.331 2.151-3.316c.986-.896 2.062-1.703 3.496-2.241 1.345-.538 2.868-.807 4.571-.807s3.227.179 4.661.448c1.434.269 2.599.538 3.496.896v18.734c0 1.345-.269 2.51-.717 3.585s-1.076 1.972-1.972 2.689c-.807.717-1.793 1.255-2.958 1.613s-2.331.538-3.675.538c-.986 0-1.882-.09-2.689-.179s-1.524-.269-2.151-.359c-.627-.179-1.165-.359-1.703-.627s-.986-.538-1.434-.896l2.241-3.496zm10.129-18.376a2.767 2.767 0 0 0-1.165-.269c-.448-.09-1.076-.09-1.972-.09-.986 0-1.882.179-2.599.538s-1.345.807-1.882 1.345c-.538.538-.896 1.165-1.165 1.882s-.359 1.524-.359 2.331c0 1.524.359 2.779 1.076 3.765s1.972 1.524 3.585 1.524c1.524 0 2.599-.359 3.406-.986.717-.627 1.165-1.613 1.165-3.048v-6.992zM117.602 27.608h5.199v11.115h13.714V27.608h5.199v27.608h-5.199V43.384h-13.714v11.832h-5.199zM158.118 53.423c-.538.627-1.345 1.165-2.42 1.703s-2.241.717-3.585.717c-.807 0-1.613-.09-2.42-.359s-1.524-.627-2.151-1.165a7.057 7.057 0 0 1-1.613-1.972c-.359-.807-.627-1.703-.627-2.779s.179-2.062.627-2.958c.448-.896.986-1.613 1.703-2.151.717-.627 1.613-1.076 2.689-1.345s2.241-.448 3.496-.448h1.255c.448 0 .896 0 1.345.09.538 0 .986.09 1.524.09v-.448c0-.986-.359-1.703-1.165-2.241s-1.793-.807-3.048-.807c-1.345 0-2.51.179-3.316.538s-1.524.717-2.151 1.165l-2.241-3.316c.359-.269.807-.538 1.345-.807s1.076-.538 1.703-.807 1.434-.448 2.331-.538c.896-.179 1.882-.269 3.048-.269 1.255 0 2.331.179 3.406.538.986.359 1.882.807 2.599 1.434s1.255 1.345 1.613 2.241c.359.896.538 1.793.538 2.868v12.997h-4.571l.09-1.972zm0-6.902c-.538 0-.986-.09-1.434-.09-.359 0-.807-.09-1.255-.09h-1.076c-1.613 0-2.689.269-3.316.896s-.986 1.345-.986 2.151c0 .807.269 1.434.896 1.972.627.448 1.434.717 2.599.717.538 0 1.165-.09 1.703-.269s.986-.448 1.434-.807c.448-.359.717-.717.986-1.165s.359-.896.359-1.434V46.52zM166.633 35.854h4.661l.09 2.151.896-.896c.359-.269.717-.627 1.255-.807.448-.269.986-.448 1.613-.627s1.255-.269 2.062-.269c2.42 0 4.303.717 5.557 2.151s1.882 3.406 1.882 5.826v11.832h-4.84V43.473c0-1.255-.359-2.241-.986-2.868-.717-.717-1.524-.986-2.599-.986-.627 0-1.255.09-1.882.359-.538.269-1.076.627-1.524 1.076s-.717.986-.986 1.613-.359 1.255-.359 1.972v10.487h-4.84V35.854zM202.218 53.333l-.896.896c-.359.269-.807.538-1.255.807s-.986.448-1.613.627a6.998 6.998 0 0 1-1.972.269 7.84 7.84 0 0 1-3.137-.627c-.986-.448-1.972-1.076-2.689-1.972-.807-.896-1.434-1.882-1.972-3.137s-.717-2.689-.717-4.303c0-1.524.179-2.868.627-4.034s.986-2.151 1.613-2.958c.538-.627 1.165-1.255 1.793-1.613.627-.448 1.345-.807 1.972-1.076.717-.269 1.345-.538 1.972-.627s1.165-.179 1.613-.179c.627 0 1.165 0 1.613.09s.807.09 1.076.179c.359.09.627.179.896.269s.627.269.986.359v-8.695h4.84v27.608h-4.751v-1.882zm0-12.638c-.448-.359-.986-.627-1.613-.807s-1.434-.269-2.42-.269-1.793.179-2.42.538c-.627.359-1.165.896-1.613 1.434s-.717 1.165-.986 1.882c-.269.717-.359 1.524-.359 2.331 0 1.613.448 3.048 1.255 4.123s2.062 1.613 3.585 1.613a5.41 5.41 0 0 0 2.151-.448c.538-.359 1.076-.717 1.434-1.255s.627-1.076.807-1.613c.179-.627.269-1.165.269-1.703v-5.826z"/></svg>