<?xml version="1.0" encoding="UTF-8" standalone="no"?>
<!-- Created with Inkscape (http://www.inkscape.org/) -->

<svg
   xmlns:dc="http://purl.org/dc/elements/1.1/"
   xmlns:cc="http://creativecommons.org/ns#"
   xmlns:rdf="http://www.w3.org/1999/02/22-rdf-syntax-ns#"
   xmlns:svg="http://www.w3.org/2000/svg"
   xmlns="http://www.w3.org/2000/svg"
   version="1.1"
   width="744.09998"
   height="555.38"
   id="svg2"
   xml:space="preserve"><metadata
     id="metadata8"><rdf:RDF><cc:Work
         rdf:about=""><dc:format>image/svg+xml</dc:format><dc:type
           rdf:resource="http://purl.org/dc/dcmitype/StillImage" /><dc:title></dc:title></cc:Work></rdf:RDF></metadata><defs
     id="defs6"><clipPath
       id="clipPath16"><path
         d="m 0,444.304 595.28,0 L 595.28,0 0,0 0,444.304 z"
         id="path18" /></clipPath></defs><g
     transform="matrix(1.25,0,0,-1.25,0,555.38)"
     id="g10"><g
       id="g12"><g
         clip-path="url(#clipPath16)"
         id="g14"><g
           transform="translate(501.0249,433.7589)"
           id="g20"><path
             d="m 0,0 c 7.274,-8.265 14.93,-16.228 21.757,-24.848 31.011,-39.153 50.603,-83.439 58.229,-132.829 9.375,-60.715 0.367,-118.683 -27.098,-173.671 -13.057,-26.139 -29.921,-49.626 -50.342,-70.544 -0.914,-0.936 -1.737,-1.96 -2.441,-2.761 -11.709,11.71 -23.174,23.175 -34.754,34.754 44.889,46.497 68.934,102.238 68.943,167.48 0.009,65.188 -23.978,120.875 -69.526,168.14 11.529,11.388 23.116,22.833 34.703,34.279 L 0,0 z"
             id="path22"
             style="fill:#1266ae;fill-opacity:1;fill-rule:nonzero;stroke:none" /></g><g
           transform="translate(298.1645,294.767)"
           id="g24"><path
             d="m 0,0 c -36.618,-0.275 -64.206,-30.663 -62.971,-65.363 1.177,-33.086 28.71,-61.596 64.567,-60.791 35.137,0.789 62.649,30.301 61.515,65.168 C 62.06,-28.685 35.706,-0.232 0,0 m -165.923,-276.194 c 38.161,38.161 75.831,75.831 113.67,113.669 -28.584,15.988 -47.694,39.316 -56.126,70.84 -6.372,23.819 -4.8,47.363 4.278,70.296 17.777,44.915 63.509,73.649 111.612,70.268 49.033,-3.447 90.226,-38.112 101.593,-85.41 11.867,-49.382 -10.342,-101.775 -57.961,-126.623 37.492,-37.487 74.945,-74.935 112.867,-112.851 -1.484,-0.094 -2.228,-0.182 -2.972,-0.183 -21.441,-0.007 -42.883,-0.038 -64.324,0.069 -1.376,0.007 -3.091,0.739 -4.07,1.714 -30.51,30.386 -60.948,60.843 -91.385,91.3 -0.743,0.744 -1.348,1.625 -2.099,2.542 -1.048,-0.998 -1.746,-1.636 -2.414,-2.304 -30.454,-30.449 -60.915,-60.891 -91.324,-91.384 -1.431,-1.435 -2.849,-1.986 -4.842,-1.981 -21.089,0.062 -42.177,0.038 -63.266,0.038 -0.863,0 -1.726,0 -3.237,0"
             id="path26"
             style="fill:#1266ae;fill-opacity:1;fill-rule:nonzero;stroke:none" /></g><g
           transform="translate(93.9982,431.6876)"
           id="g28"><path
             d="m 0,0 c 11.694,-11.454 23.274,-22.797 34.905,-34.191 -44.577,-47.02 -67.967,-102.666 -67.626,-167.397 0.34,-64.639 24.289,-119.955 68.908,-166.149 C 24.718,-379.206 13.265,-390.658 1.805,-402.119 -103.25,-302.172 -115.542,-117.052 0,0"
             id="path30"
             style="fill:#1266ae;fill-opacity:1;fill-rule:nonzero;stroke:none" /></g><g
           transform="translate(441.5976,372.5936)"
           id="g32"><path
             d="m 0,0 c 81.158,-79.859 75.485,-210.519 0.166,-282.79 -11.46,11.451 -22.916,22.898 -34.489,34.462 28.651,29.725 43.954,65.353 43.89,106.98 -0.063,41.64 -15.493,77.219 -44.311,106.944 C -23.153,-22.926 -11.644,-11.53 0,0"
             id="path34"
             style="fill:#1266ae;fill-opacity:1;fill-rule:nonzero;stroke:none" /></g><g
           transform="translate(155.5547,369.7909)"
           id="g36"><path
             d="M 0,0 C 11.76,-11.294 23.393,-22.467 35.248,-33.853 7.42,-63.822 -7.2,-99.159 -6.821,-140.175 -6.443,-181.23 8.847,-216.291 37.11,-245.577 25.552,-257.135 14.097,-268.589 2.638,-280.049 -70.86,-210.361 -79.121,-81.301 0,0"
             id="path38"
             style="fill:#1266ae;fill-opacity:1;fill-rule:nonzero;stroke:none" /></g></g></g></g></svg>