<svg xmlns:xlink="http://www.w3.org/1999/xlink" style="enable-background:new 0 0 135 40;"
    id="artwork" version="1.1" viewBox="0 0 24 24" x="0px" xmlns="http://www.w3.org/2000/svg"
    y="0px" xml:space="preserve">
    <style>
        .pen{stroke-width:0px;fill:#e53935;}
    </style>
    <g class="pen">
    <path
        d="M21,3L3,3c-1.11,0 -2,0.89 -2,2v12c0,1.1 0.89,2 2,2h5v2h8v-2h5c1.1,0 1.99,-0.9 1.99,-2L23,5c0,-1.11 -0.9,-2 -2,-2zM21,17L3,17L3,5h18v12z" />
        <path
            d="M14,10L2,10v2h12v-2zM14,6L2,6v2h12L14,6zM2,16h8v-2L2,14v2zM21.5,11.5L23,13l-6.99,7 -4.51,-4.5L13,14l3.01,3 5.49,-5.5z"
            transform="scale(0.6 0.6) translate(10 6)" />
</g>
</svg>