<?xml version="1.0" encoding="utf-8"?>
<!-- Generator: Adobe Illustrator 24.0.2, SVG Export Plug-In . SVG Version: 6.00 Build 0)  -->
<svg version="1.1" id="JLCLogo" xmlns="http://www.w3.org/2000/svg" xmlns:xlink="http://www.w3.org/1999/xlink" x="0px" y="0px"
	 viewBox="0 0 141.8 34.6" enable-background="new 0 0 141.8 34.6" xml:space="preserve">
<g>
	<path fill="#000000" d="M130,28.2h-0.3c-0.1,0-0.7,0-1.1-0.8c-1-1.7-1.5-2.2-1.7-2.4s0-0.2,0-0.2c2.2-0.5,2.1-2,2.1-2
		c0-1.9-2.4-1.9-2.4-1.9H121c-0.1,0-0.2,0.1-0.2,0.2v0.3c0,0.1,0.1,0.2,0.2,0.2l0.5,0.1c0.2,0,0.4,0.2,0.4,0.4v5.6
		c0,0.2-0.2,0.4-0.4,0.5l-0.5,0.1c-0.1,0-0.2,0.1-0.2,0.2v0.3c0,0.1,0.1,0.1,0.2,0.1h3.7c0.1,0,0.2-0.1,0.2-0.1v-0.3
		c0-0.1-0.1-0.2-0.2-0.2l-0.5-0.1c-0.2,0-0.4-0.2-0.4-0.5v-2.3c0-0.2,0.1-0.3,0.3-0.3h0.5c0,0,0.8,0,1.4,1c0,0,0.4,0.8,0.9,1.7
		s0.8,1.1,2.2,1.1h0.9c0.1,0,0.1-0.1,0.1-0.1v-0.4C130.2,28.3,130.1,28.2,130,28.2z M125.6,24.4h-1.5c-0.2,0-0.3-0.1-0.3-0.3v-2.3
		c0-0.2,0.1-0.3,0.3-0.3h1.5c0,0,1.5,0,1.5,1.4C127.2,24.4,125.6,24.4,125.6,24.4z"/>
	<path fill="#000000" d="M117.1,21.8c0-0.2,0.1-0.3,0.3-0.3h0.9c0,0,0.6,0.1,1,0.6l0.3,0.4c0,0.1,0.1,0.1,0.2,0.1h0.4
		c0.1,0,0.2-0.1,0.2-0.1s0,0,0-0.1l-0.5-1.2c-0.1-0.2-0.3-0.3-0.5-0.3h-6.3c-0.2,0-0.4,0.1-0.5,0.3l-0.5,1.2c0,0,0,0,0,0.1
		s0.1,0.1,0.2,0.1h0.4c0.1,0,0.1-0.1,0.2-0.1l0.3-0.4c0.4-0.5,1-0.6,1-0.6h0.9c0.2,0,0.3,0.1,0.3,0.3v5.8c0,0.2-0.2,0.4-0.4,0.5
		l-0.5,0.1c-0.1,0-0.2,0.1-0.2,0.2v0.3c0,0.1,0.1,0.2,0.2,0.2h3.7c0.1,0,0.2-0.1,0.2-0.2v-0.3c0-0.1-0.1-0.2-0.2-0.2l-0.5-0.1
		c-0.2,0-0.4-0.2-0.4-0.5v-5.8H117.1z"/>
	<path fill="#000000" d="M109.5,22.1c0-0.2,0.2-0.4,0.4-0.5l0.5-0.1c0.1,0,0.2-0.1,0.2-0.2V21c0-0.1-0.1-0.2-0.2-0.2h-3.7
		c-0.1,0-0.1,0.1-0.1,0.2v0.3c0,0.1,0.1,0.2,0.2,0.2l0.5,0.1c0.2,0,0.4,0.2,0.4,0.5v5.6c0,0.2-0.2,0.4-0.4,0.5l-0.5,0.1
		c-0.1,0-0.2,0.1-0.2,0.2v0.3c0,0.1,0.1,0.1,0.1,0.1h5.6c0.2,0,0.4-0.1,0.5-0.3l0.5-1.2c0,0,0,0,0-0.1s-0.1-0.1-0.2-0.1h-0.3
		c-0.1,0-0.1,0.1-0.2,0.1l-0.3,0.4c-0.4,0.5-1,0.5-1,0.5h-1.5c-0.2,0-0.3-0.1-0.3-0.3V22.1z"/>
	<path fill="#000000" d="M100.2,25.6c0,0-0.2,2.5,2,2.5c2,0,2-2.2,2-2.2v-3.8c0-0.2-0.1-0.4-0.3-0.5l-0.4-0.1
		c-0.1,0-0.2-0.1-0.2-0.2V21c0-0.1,0.1-0.2,0.2-0.2h2.3c0.1,0,0.2,0.1,0.2,0.2v0.3c0,0.1-0.1,0.2-0.2,0.2l-0.4,0.1
		c-0.2,0-0.3,0.2-0.3,0.5v3.5c0,0.4,0,3.2-3.1,3.2c-3.7,0-3.5-3.2-3.5-3.2V22c0-0.2-0.2-0.4-0.4-0.5l-0.5-0.1
		c-0.1,0-0.2-0.1-0.2-0.2V21c0-0.1,0.1-0.2,0.2-0.2h3.5c0.1,0,0.2,0.1,0.2,0.2v0.4c0,0.1-0.1,0.2-0.2,0.2l-0.4,0.1
		c-0.2,0-0.3,0.2-0.3,0.5v3.4H100.2z"/>
	<path fill="#000000" d="M94.2,21.2c-0.5-0.3-1.1-0.4-1.8-0.4c-2.2,0-4.1,1.8-4.1,4.1s1.8,4.1,4.1,4.1c2.2,0,4.1-1.8,4.1-4.1
		C96.5,23.2,95.6,21.8,94.2,21.2z M92.5,28.2c-1.4,0-2-1.3-2-3.4c-0.1-2.2,0.4-3.5,1.8-3.5s2,1.2,2,3.4C94.5,26.9,94,28.2,92.5,28.2
		z"/>
	<path fill="#000000" d="M86.6,26.2c-1.4,2-3.4,1.9-3.4,1.9c-2.2,0.1-3-2.2-3.1-5s0.6-5.1,2.7-5.2c0,0,2.1-0.3,3.4,1.8
		c0,0.1,0.1,0.1,0.2,0.1h0.1l0.5-0.1c0.1,0,0.1-0.1,0.1-0.1s0,0,0-0.1l-0.7-2.2c0-0.1-0.1-0.1-0.2-0.1h-0.3c-0.1,0-0.2,0.1-0.2,0.1
		C85.6,18,85,17.6,85,17.6c-0.7-0.4-1.5-0.6-2.3-0.6c-3,0-5.4,2.7-5.4,5.9c0,3.3,2.4,5.9,5.4,5.9c0.9,0,1.8-0.2,2.5-0.7
		c0,0,0.6-0.4,0.7,0.3c0,0.1,0.1,0.1,0.2,0.1h0.3c0.1,0,0.2-0.1,0.2-0.1l0.7-2.2c0,0,0,0,0-0.1s0-0.1-0.1-0.1l-0.4,0h-0.1
		C86.6,26,86.6,26.1,86.6,26.2z"/>
	<path fill="#000000" d="M71.5,20.8h4c0.2,0,0.4,0.2,0.5,0.3l0.4,1.1c0,0,0,0,0,0.1s-0.1,0.1-0.1,0.1h-0.4c-0.1,0-0.1-0.1-0.2-0.1
		L75.5,22c-0.4-0.6-0.9-0.5-0.9-0.5h-2.1c-0.2,0-0.3,0.1-0.3,0.3v1.3c0,0.2,0.1,0.3,0.3,0.3H73c0.3,0,0.5-0.1,0.6-0.3l0.1-0.3
		c0-0.1,0.1-0.1,0.2-0.1h0.3c0.1,0,0.2,0.1,0.2,0.1l0.7,2.1c0,0,0,0,0,0.1s0,0.1-0.1,0.1l-0.3,0.1h-0.1c-0.1,0-0.1-0.1-0.2-0.1
		l-0.2-0.4c0,0-0.2-0.4-0.7-0.4h-0.9c-0.2,0-0.3,0.1-0.3,0.3V28c0,0.2,0.1,0.3,0.3,0.3h2.3c0,0,0.6,0,1-0.5l0.3-0.4
		c0-0.1,0.1-0.1,0.2-0.1h0.4c0.1,0,0.1,0.1,0.1,0.1s0,0,0,0.1l-0.5,1.2c-0.1,0.2-0.3,0.3-0.5,0.3h-6.3c-0.1,0-0.2-0.1-0.2-0.1v-0.3
		c0-0.1,0.1-0.2,0.2-0.2l0.5-0.1c0.2,0,0.4-0.2,0.4-0.5v-5.6c0-0.2-0.2-0.4-0.4-0.5l-0.5-0.1c-0.1,0-0.2-0.1-0.2-0.2V21
		c0-0.1,0.1-0.2,0.2-0.2H71.5z"/>
	<path fill="#000000" d="M65.1,22.1c0-0.2,0.2-0.4,0.4-0.5l0.5-0.1c0.1,0,0.2-0.1,0.2-0.2V21c0-0.1-0.1-0.2-0.2-0.2h-3.7
		c-0.1,0-0.1,0.1-0.1,0.2v0.3c0,0.1,0.1,0.2,0.2,0.2l0.5,0.1c0.2,0,0.4,0.2,0.4,0.5v5.6c0,0.2-0.2,0.4-0.4,0.5l-0.5,0.1
		c-0.1,0-0.2,0.1-0.2,0.2v0.4c0,0.1,0.1,0.1,0.1,0.1h5.6c0.2,0,0.4-0.1,0.5-0.3l0.5-1.2c0,0,0,0,0-0.1s-0.1-0.1-0.2-0.1h-0.4
		c-0.1,0-0.1,0.1-0.2,0.1l-0.3,0.4c-0.4,0.5-1,0.5-1,0.5h-1.6c-0.2,0-0.3-0.1-0.3-0.3v-5.9H65.1z"/>
	<path fill="#000000" d="M60.9,24.2C60.9,24.1,60.8,24.1,60.9,24.2l-3.6-0.1c-0.1,0-0.2,0.1-0.2,0.1v0.9c0,0.1,0.1,0.1,0.2,0.1h3.5
		c0.1,0,0.1-0.1,0.1-0.1V24.2z"/>
	<path fill="#000000" d="M56.4,28.2h-0.3c-0.1,0-0.7,0-1.1-0.8c-1-1.7-1.5-2.2-1.7-2.4s0-0.2,0-0.2c2.2-0.5,2.1-2,2.1-2
		c0-1.9-2.4-1.9-2.4-1.9h-5.6c-0.1,0-0.2,0.1-0.2,0.2v0.4c0,0.1,0.1,0.2,0.2,0.2l0.5,0.1c0.2,0,0.4,0.2,0.4,0.4v5.6
		c0,0.2-0.2,0.4-0.4,0.5l-0.5,0.1c-0.1,0-0.2,0.1-0.2,0.2V29c0,0.1,0.1,0.1,0.2,0.1h3.7c0.1,0,0.2-0.1,0.2-0.1v-0.4
		c0-0.1-0.1-0.2-0.2-0.2l-0.5-0.1c-0.2,0-0.4-0.2-0.4-0.5v-2.3c0-0.2,0.1-0.3,0.3-0.3H51c0,0,0.8,0,1.4,1c0,0,0.4,0.8,0.9,1.7
		s0.8,1.1,2.2,1.1h0.9c0.1,0,0.1-0.1,0.1-0.1v-0.4C56.5,28.3,56.5,28.2,56.4,28.2z M52,24.4h-1.5c-0.2,0-0.3-0.1-0.3-0.3v-2.3
		c0-0.2,0.1-0.3,0.3-0.3H52c0,0,1.5,0,1.5,1.4C53.5,24.3,52,24.4,52,24.4z"/>
	<path fill="#000000" d="M41.1,20.8h4c0.2,0,0.4,0.2,0.5,0.3l0.4,1.1c0,0,0,0,0,0.1s-0.1,0.1-0.1,0.1h-0.4c-0.1,0-0.1-0.1-0.2-0.1
		L45.1,22c-0.4-0.6-0.9-0.5-0.9-0.5h-2.1c-0.2,0-0.3,0.1-0.3,0.3v1.3c0,0.2,0.1,0.3,0.3,0.3h0.5c0.3,0,0.5-0.1,0.6-0.3l0.1-0.3
		c0-0.1,0.1-0.1,0.2-0.1h0.3c0.1,0,0.2,0.1,0.2,0.1l0.7,2.1c0,0,0,0,0,0.1s0,0.1-0.1,0.1L44.2,25h-0.1c-0.1,0-0.1-0.1-0.2-0.1
		l-0.2-0.4c0,0-0.2-0.4-0.7-0.4h-0.9c-0.2,0-0.3,0.1-0.3,0.3v3.4c0,0.2,0.1,0.3,0.3,0.3h2.3c0,0,0.6,0,1-0.5l0.3-0.4
		c0-0.1,0.1-0.1,0.2-0.1h0.4c0.1,0,0.2,0.1,0.2,0.1s0,0,0,0.1l-0.7,1.3c-0.1,0.2-0.3,0.3-0.5,0.3H39c-0.1,0-0.1-0.1-0.1-0.1v-0.3
		c0-0.1,0.1-0.2,0.2-0.2l0.5-0.1c0.2,0,0.4-0.2,0.4-0.5v-5.6c0-0.2-0.2-0.4-0.4-0.5l-0.5-0.1c-0.1,0-0.2-0.1-0.2-0.2V21
		c0-0.1,0.1-0.2,0.1-0.2H41.1z"/>
	<path fill="#000000" d="M35.6,26.4c0-0.2-0.2-0.4-0.4-0.5h-0.4c-0.1,0-0.2-0.1-0.2-0.2v-0.2c0-0.1,0.1-0.1,0.2-0.1h3.4
		c0.1,0,0.2,0.1,0.2,0.1v0.2c0,0.1-0.1,0.2-0.2,0.2H38c-0.2,0-0.4,0.2-0.4,0.5v1.1c0,0.2-0.1,0.3-0.3,0.4c-1.9,1.2-3.2,1-3.2,1
		c-2.2,0-4.1-1.8-4.1-4.1s1.8-4.1,4.1-4.1c0.6,0,1.2,0.1,1.8,0.4c0,0,0.3,0.2,0.5-0.2c0-0.1,0.1-0.1,0.2-0.1h0.2
		c0.1,0,0.2,0.1,0.2,0.1l0.5,1.8c0,0,0,0,0,0.1s-0.1,0.1-0.1,0.1L36.7,23h-0.1c-0.1,0-0.1-0.1-0.2-0.1l-0.1-0.2
		c-0.8-1.6-2.5-1.4-2.5-1.4c-1.4,0-1.9,1.4-1.9,3.5c0.1,2.1,0.6,3.5,2,3.4c0,0,0.9,0,1.4-0.6c0.1-0.1,0.1-0.2,0.1-0.2v-1H35.6z"/>
	<path fill="#000000" d="M22,28.9C21.9,28.9,21.9,28.8,22,28.9l-0.1-0.4c0-0.1,0.1-0.2,0.2-0.2l0.5-0.1c0.2,0,0.4-0.2,0.4-0.5v-5.6
		c0-0.2-0.2-0.4-0.4-0.5l-0.5-0.1c-0.1,0-0.2-0.1-0.2-0.2V21c0-0.1,0.1-0.2,0.1-0.2h6.1c0.2,0,0.4,0.2,0.5,0.3l0.4,1.1
		c0,0,0,0,0,0.1s-0.1,0.1-0.1,0.1h-0.4c-0.1,0-0.1-0.1-0.2-0.1L28.1,22c-0.4-0.6-0.9-0.5-0.9-0.5h-2.1c-0.2,0-0.3,0.1-0.3,0.3V23
		c0,0.2,0.1,0.3,0.3,0.3h0.5c0.3,0,0.5-0.1,0.6-0.3l0.1-0.3c0-0.1,0.1-0.1,0.2-0.1h0.3c0.1,0,0.2,0.1,0.2,0.1l0.7,2.1c0,0,0,0,0,0.1
		s0,0.1-0.1,0.1l-0.4,0h-0.1c-0.1,0-0.1-0.1-0.2-0.1l-0.2-0.4c0,0-0.2-0.4-0.7-0.4h-0.9c-0.2,0-0.3,0.1-0.3,0.3v3.4
		c0,0.2,0.1,0.3,0.3,0.3h2.3c0,0,0.6,0,1-0.5l0.3-0.4c0-0.1,0.1-0.1,0.2-0.1h0.4c0.1,0,0.1,0.1,0.1,0.1s0,0,0,0.1l-0.6,1.3
		c-0.1,0.2-0.3,0.3-0.5,0.3C28.3,28.9,22,28.9,22,28.9z"/>
	<path fill="#000000" d="M21.1,28.2L21.1,28.2c-0.1-0.1-0.5-0.2-0.7-0.8l-2.2-6.3c0,0-0.1-0.3-0.5-0.3h-1.6c-0.4,0-0.5,0.3-0.5,0.3
		l-2.4,6.3c-0.3,0.7-0.8,0.7-0.8,0.7h-0.2c-0.1,0-0.2,0.1-0.2,0.2v0.4c0,0.1,0.1,0.1,0.1,0.1h2.5c0.1,0,0.2-0.1,0.2-0.1v-0.4
		c0-0.1-0.1-0.2-0.2-0.2h-0.1c-0.2,0-0.4-0.2-0.4-0.5c0-0.1,0-0.1,0-0.2l0.2-0.5c0,0,0.1-0.2,0.4-0.2h3c0.3,0,0.4,0.2,0.4,0.2
		l0.2,0.5c0,0,0,0.1,0,0.2c0,0.2-0.2,0.4-0.4,0.5h-0.1c-0.1,0-0.2,0.1-0.2,0.2v0.4c0,0.1,0.1,0.1,0.2,0.1H21c0.1,0,0.2-0.1,0.2-0.1
		v-0.4C21.2,28.3,21.1,28.2,21.1,28.2z M17.5,26.1H15c-0.3,0-0.2-0.2-0.2-0.2l1.3-3.3c0,0,0.1-0.3,0.2-0.3c0.1,0,0.2,0.3,0.2,0.3
		l1.1,3.3C17.7,25.9,17.8,26.1,17.5,26.1z"/>
	<path fill="#000000" d="M3.3,28.2c-0.9-0.5-1-1-0.8-1.3s0.6-0.5,1.5,0c0.8,0.4,1.5,1.2,1.9,1.7C5.4,28.7,4.2,28.7,3.3,28.2z
		 M135.5,28.9c2.1,0,3.4-0.1,4.6-0.9c1.5-0.9,2.1-2.4,1.5-3.3c-0.5-0.9-1.9-1-3.3-0.1c0,0-1.6,0.9-3.4,3.6l0,0h-1.2
		c-0.2,0-0.3-0.1-0.3-0.3v-3.4c0-0.2,0.1-0.3,0.3-0.3h0.9c0.5,0,0.7,0.4,0.7,0.4l0.2,0.4c0,0.1,0.1,0.1,0.2,0.1h0.1l0.3-0.1
		c0.1,0,0.1-0.1,0.1-0.1s0,0,0-0.1l-0.7-2.1c0-0.1-0.1-0.1-0.2-0.1H135c-0.1,0-0.2,0.1-0.2,0.1l-0.1,0.3c-0.1,0.2-0.2,0.3-0.6,0.3
		h-0.5c-0.2,0-0.3-0.1-0.3-0.3v-1.3c0-0.2,0.1-0.3,0.3-0.3h2.1c0,0,0.6,0,0.9,0.5l0.2,0.3c0,0.1,0.1,0.1,0.2,0.1h0.4
		c0.1,0,0.1-0.1,0.1-0.1s0,0,0-0.1l-0.4-1.1c-0.1-0.2-0.3-0.3-0.5-0.3h-4h-2.1c-0.1,0-0.2,0.1-0.2,0.2v0.4c0,0.1,0.1,0.2,0.2,0.2
		l0.5,0.1c0.2,0,0.4,0.2,0.4,0.5v5.6c0,0.2-0.2,0.4-0.4,0.5l-0.5,0.1c-0.1,0-0.2,0.1-0.2,0.2v0.3c0,0.1,0.1,0.1,0.2,0.1h3h0.7
		c-1.8,2.4-3.6,3.8-6.4,4H13.3c-2.8-0.2-4-1.1-5.7-3.5l0,0c3.8-0.8,4.1-3.7,4.3-5.7c0.2-1.7,0.1-3.8,0.1-3.8v-1.1
		c0-0.3,0.2-0.5,0.4-0.5l0.5-0.1c0.1,0,0.2-0.1,0.2-0.2v-0.5c0-0.1-0.1-0.2-0.2-0.2H8.4c-0.1,0-0.2,0.1-0.2,0.2V18
		c0,0.1,0.1,0.2,0.2,0.2l0.5,0.1c0.2,0,0.4,0.2,0.4,0.5v5c0,0.8,0.1,2.9-1.1,3.9c-0.4,0.4-0.9,0.6-1.4,0.7l0,0
		c-1.8-2.5-3.3-3.3-3.3-3.3c-1.4-0.9-2.8-0.8-3.3,0.1c-0.5,0.9,0,2.3,1.5,3.3c1.2,0.8,3.1,1.1,4.6,1l0,0c0,0,1.2,1.7,1.7,2.4
		s1.6,2.7,6.4,2.7h111.8c4.9,0,6.7-2.5,7.2-3.2C134,30.9,135.5,28.9,135.5,28.9z M136.1,28.1c0.4-0.5,1.1-1.3,1.8-1.7
		c0.9-0.5,1.3-0.3,1.5,0c0.2,0.3,0,0.9-0.9,1.3C138.5,27.7,137.8,28.1,136.1,28.1z"/>
	<path fill="#000000" d="M83,10.6c-2.7,1.2-5.6,2-8.6,2.3V3.3H78L75.8,0h-3.9L71,1.3L70.1,0h-3.9L64,3.3h3.6v9.6
		c-3-0.3-5.9-1.1-8.6-2.3l-2.7,3.9c1.2,0.5,2.4,1,3.6,1.4l1-1.5c3.1,1,6.4,1.5,9.7,1.5l0,0c0.1,0,0.3,0,0.4,0c3.5,0,6.9-0.5,10-1.6
		l1,1.5c1.2-0.4,2.4-0.9,3.6-1.4L83,10.6z M70.7,15.3c-3.5,0-6.9-0.6-10-1.7l-1,1.5c-0.8-0.3-1.5-0.6-2.3-0.9l1.9-2.7
		c2.8,1.2,5.9,1.9,9.1,2.2V2.6h-3l1.3-1.9h3.1L70.7,2V15.3z M81.4,13.6c-3.2,1.1-6.5,1.7-10,1.7V2l0.9-1.3h3.2l1.3,1.9h-3v11.1
		c3.2-0.3,6.2-1,9.1-2.2l1.9,2.7c-0.7,0.3-1.5,0.6-2.3,0.9L81.4,13.6z"/>
</g>
</svg>
