<?xml version="1.0" encoding="UTF-8" standalone="no" ?>
<!DOCTYPE svg PUBLIC "-//W3C//DTD SVG 1.1//EN" "http://www.w3.org/Graphics/SVG/1.1/DTD/svg11.dtd">
<svg xmlns="http://www.w3.org/2000/svg" xmlns:xlink="http://www.w3.org/1999/xlink" version="1.1" width="192" height="192" viewBox="0 0 64 64" xml:space="preserve">
<desc>Created with Fabric.js 3.6.3</desc>
<defs>
</defs>
<g transform="matrix(1.09 0 -0.62 0.89 31.57 51.01)" id="rect4312"  >
<rect style="stroke: rgb(164,164,165); stroke-width: 0; stroke-dasharray: none; stroke-linecap: square; stroke-dashoffset: 0; stroke-linejoin: miter; stroke-miterlimit: 4; fill: rgb(42,69,124); fill-rule: nonzero; opacity: 1;"  x="-24.359211" y="-2.85979175" rx="0" ry="0" width="48.718422" height="5.7195835" />
</g>
<g transform="matrix(1.09 0 -0.61 0.9 15.34 35.25)" id="rect4314"  >
<rect style="stroke: rgb(164,164,165); stroke-width: 0; stroke-dasharray: none; stroke-linecap: square; stroke-dashoffset: 0; stroke-linejoin: miter; stroke-miterlimit: 4; fill: rgb(42,69,124); fill-rule: nonzero; opacity: 1;"  x="-9.286956" y="-2.84261205" rx="0" ry="0" width="18.573912" height="5.6852241" />
</g>
<g transform="matrix(1.09 0 -0.61 0.9 47.96 35.07)" id="rect4316"  >
<rect style="stroke: rgb(164,164,165); stroke-width: 0; stroke-dasharray: none; stroke-linecap: square; stroke-dashoffset: 0; stroke-linejoin: miter; stroke-miterlimit: 4; fill: rgb(42,69,124); fill-rule: nonzero; opacity: 1;"  x="-9.286956" y="-2.84261205" rx="0" ry="0" width="18.573912" height="5.6852241" />
</g>
<g transform="matrix(1.09 0 -0.62 0.89 31.57 43.08)" id="rect4318"  >
<rect style="stroke: rgb(164,164,165); stroke-width: 0; stroke-dasharray: none; stroke-linecap: square; stroke-dashoffset: 0; stroke-linejoin: miter; stroke-miterlimit: 4; fill: rgb(42,69,124); fill-rule: nonzero; opacity: 1;"  x="-24.359211" y="-2.85979175" rx="0" ry="0" width="48.718422" height="5.7195835" />
</g>
<g transform="matrix(1.09 0 -0.62 0.89 31.57 27.23)" id="rect4320"  >
<rect style="stroke: rgb(164,164,165); stroke-width: 0; stroke-dasharray: none; stroke-linecap: square; stroke-dashoffset: 0; stroke-linejoin: miter; stroke-miterlimit: 4; fill: rgb(67,107,191); fill-rule: nonzero; opacity: 1;"  x="-24.359211" y="-2.85979175" rx="0" ry="0" width="48.718422" height="5.7195835" />
</g>
<g transform="matrix(1.09 0 -0.61 0.9 15.34 11.47)" id="rect4322"  >
<rect style="stroke: rgb(164,164,165); stroke-width: 0; stroke-dasharray: none; stroke-linecap: square; stroke-dashoffset: 0; stroke-linejoin: miter; stroke-miterlimit: 4; fill: rgb(67,107,191); fill-rule: nonzero; opacity: 1;"  x="-9.286956" y="-2.84261205" rx="0" ry="0" width="18.573912" height="5.6852241" />
</g>
<g transform="matrix(1.09 0 -0.61 0.9 47.96 11.29)" id="rect4324"  >
<rect style="stroke: rgb(164,164,165); stroke-width: 0; stroke-dasharray: none; stroke-linecap: square; stroke-dashoffset: 0; stroke-linejoin: miter; stroke-miterlimit: 4; fill: rgb(67,107,191); fill-rule: nonzero; opacity: 1;"  x="-9.286956" y="-2.84261205" rx="0" ry="0" width="18.573912" height="5.6852241" />
</g>
<g transform="matrix(1.09 0 -0.62 0.89 31.57 19.31)" id="rect4326"  >
<rect style="stroke: rgb(164,164,165); stroke-width: 0; stroke-dasharray: none; stroke-linecap: square; stroke-dashoffset: 0; stroke-linejoin: miter; stroke-miterlimit: 4; fill: rgb(67,107,191); fill-rule: nonzero; opacity: 1;"  x="-24.359211" y="-2.85979175" rx="0" ry="0" width="48.718422" height="5.7195835" />
</g>
</svg>