<?xml version="1.0" encoding="UTF-8" standalone="no" ?>
<!DOCTYPE svg PUBLIC "-//W3C//DTD SVG 1.1//EN" "http://www.w3.org/Graphics/SVG/1.1/DTD/svg11.dtd">
<svg xmlns="http://www.w3.org/2000/svg" xmlns:xlink="http://www.w3.org/1999/xlink" version="1.1" width="292" height="64" viewBox="0 0 292 64" xml:space="preserve">
<desc>Created with Fabric.js 3.6.3</desc>
<defs>
</defs>
<g transform="matrix(1 0 0 1 71.18 53.96)" id="path4220"  >
<path style="stroke: none; stroke-width: 1; stroke-dasharray: none; stroke-linecap: butt; stroke-dashoffset: 0; stroke-linejoin: miter; stroke-miterlimit: 4; fill: rgb(255,255,255); fill-rule: nonzero; opacity: 1;"  transform=" translate(-266.18, -300.96)" d="m 271.57318 297.64329 l -2.25458 6.63347 l -1.55285 0 l -1.58617 -5.54809 l -1.58518 5.54809 l -1.55386 0 l -2.25458 -6.63347 l 1.43473 0 l 1.59627 5.51173 l 1.58618 -5.51173 l 1.55286 0 l 1.58618 5.51173 l 1.59627 -5.51173 l 1.43473 0 z" stroke-linecap="round" />
</g>
<g transform="matrix(1 0 0 1 85.28 53.96)" id="path4224"  >
<path style="stroke: none; stroke-width: 1; stroke-dasharray: none; stroke-linecap: butt; stroke-dashoffset: 0; stroke-linejoin: miter; stroke-miterlimit: 4; fill: rgb(255,255,255); fill-rule: nonzero; opacity: 1;"  transform=" translate(-280.28, -300.96)" d="m 283.85405 304.27706 l -7.14133 0 l 0 -6.63347 l 6.89296 0 l 0 1.16415 l -5.59857 0 l 0 1.43472 l 3.89426 0 l 0 1.16515 l -3.89426 0 l 0 1.7043 l 5.84694 0 l 0 1.16515 z" stroke-linecap="round" />
</g>
<g transform="matrix(1 0 0 1 99.38 53.47)" id="path4228"  >
<path style="stroke: none; stroke-width: 1; stroke-dasharray: none; stroke-linecap: butt; stroke-dashoffset: 0; stroke-linejoin: miter; stroke-miterlimit: 4; fill: rgb(255,255,255); fill-rule: nonzero; opacity: 1;"  transform=" translate(-294.39, -300.47)" d="m 295.78408 302.62376 c 0.40992 0 0.72796 -0.0686 0.95413 -0.20697 c 0.22717 -0.13934 0.34025 -0.32412 0.34025 -0.55835 c 0 -0.56037 -0.39578 -0.84205 -1.18635 -0.84205 l -4.20725 0 l 0 1.60737 l 4.09922 0 z m 0.0858 -2.77151 c 0.30189 0 0.54118 -0.0707 0.71787 -0.21204 c 0.17568 -0.14135 0.26453 -0.33116 0.26453 -0.57146 c 0 -0.49878 -0.313 -0.74918 -0.93899 -0.74918 l -4.22845 0 l 0 1.53268 l 4.18504 0 z m 1.45694 0.50685 c 0.70474 0.35944 1.05711 0.90566 1.05711 1.63969 c 0 1.19341 -0.8673 1.79012 -2.59987 1.79012 l -5.39361 0 l 0 -6.63347 l 5.45823 0 c 0.70474 0 1.25904 0.16861 1.66089 0.50685 c 0.40285 0.33823 0.60478 0.7835 0.60478 1.3378 c 0 0.56036 -0.26352 1.0137 -0.78753 1.35901" stroke-linecap="round" />
</g>
<g transform="matrix(1 0 0 1 122.45 53.47)" id="path4232"  >
<path style="stroke: none; stroke-width: 1; stroke-dasharray: none; stroke-linecap: butt; stroke-dashoffset: 0; stroke-linejoin: miter; stroke-miterlimit: 4; fill: rgb(255,255,255); fill-rule: nonzero; opacity: 1;"  transform=" translate(-317.45, -300.47)" d="m 321.27055 298.31987 l -3.17134 0 l 0 5.46933 l -1.29439 0 l 0 -5.46933 l -3.17134 0 l 0 -1.16413 l 7.63707 0 l 0 1.16413 z" stroke-linecap="round" />
</g>
<g transform="matrix(1 0 0 1 136.69 53.47)" id="path4236"  >
<path style="stroke: none; stroke-width: 1; stroke-dasharray: none; stroke-linecap: butt; stroke-dashoffset: 0; stroke-linejoin: miter; stroke-miterlimit: 4; fill: rgb(255,255,255); fill-rule: nonzero; opacity: 1;"  transform=" translate(-331.69, -300.47)" d="m 335.25918 303.78921 l -7.14133 0 l 0 -6.63347 l 6.89295 0 l 0 1.16415 l -5.59857 0 l 0 1.43472 l 3.89426 0 l 0 1.16515 l -3.89426 0 l 0 1.7043 l 5.84695 0 l 0 1.16515 z" stroke-linecap="round" />
</g>
<g transform="matrix(1 0 0 1 150.92 53.67)" id="path4240"  >
<path style="stroke: none; stroke-width: 1; stroke-dasharray: none; stroke-linecap: butt; stroke-dashoffset: 0; stroke-linejoin: miter; stroke-miterlimit: 4; fill: rgb(255,255,255); fill-rule: nonzero; opacity: 1;"  transform=" translate(-345.92, -300.67)" d="m 350.09438 298.96809 l -1.18635 0.40992 c -0.71181 -0.70475 -1.61445 -1.05812 -2.70791 -1.05812 c -0.94202 0 -1.69421 0.21808 -2.25458 0.65223 c -0.56137 0.43415 -0.84104 0.99553 -0.84104 1.68412 c 0 0.7108 0.27967 1.28025 0.84104 1.71137 c 0.56037 0.43011 1.31963 0.64518 2.27578 0.64518 c 1.1076 0 2.01023 -0.35944 2.70791 -1.07832 l 1.11063 0.59267 c -0.97736 1.10053 -2.26164 1.6508 -3.85085 1.6508 c -1.32265 0 -2.3929 -0.32915 -3.2087 -0.98644 c -0.81581 -0.6583 -1.22472 -1.50136 -1.22472 -2.5292 c 0 -1.07226 0.46445 -1.94561 1.39131 -2.62209 c 0.80571 -0.58965 1.79417 -0.88446 2.9674 -0.88446 c 1.64574 0 2.97244 0.60479 3.98008 1.81234" stroke-linecap="round" />
</g>
<g transform="matrix(1 0 0 1 165.16 53.47)" id="path4244"  >
<path style="stroke: none; stroke-width: 1; stroke-dasharray: none; stroke-linecap: butt; stroke-dashoffset: 0; stroke-linejoin: miter; stroke-miterlimit: 4; fill: rgb(255,255,255); fill-rule: nonzero; opacity: 1;"  transform=" translate(-360.16, -300.47)" d="m 364.01785 303.78921 l -1.29438 0 l 0 -2.86945 l -5.12403 0 l 0 2.86945 l -1.29438 0 l 0 -6.63347 l 1.29438 0 l 0 2.59887 l 5.12403 0 l 0 -2.59887 l 1.29438 0 l 0 6.63347 z" stroke-linecap="round" />
</g>
<g transform="matrix(1 0 0 1 179.4 53.47)" id="path4248"  >
<path style="stroke: none; stroke-width: 1; stroke-dasharray: none; stroke-linecap: butt; stroke-dashoffset: 0; stroke-linejoin: miter; stroke-miterlimit: 4; fill: rgb(255,255,255); fill-rule: nonzero; opacity: 1;"  transform=" translate(-374.4, -300.47)" d="m 378.26543 303.78921 l -1.93148 0 l -4.50814 -5.53294 l 0 5.53294 l -1.29539 0 l 0 -6.63347 l 1.92946 0 l 4.51116 5.53597 l 0 -5.53597 l 1.29439 0 l 0 6.63347 z" stroke-linecap="round" />
</g>
<g transform="matrix(1 0 0 1 193.63 53.68)" id="path4252"  >
<path style="stroke: none; stroke-width: 1; stroke-dasharray: none; stroke-linecap: butt; stroke-dashoffset: 0; stroke-linejoin: miter; stroke-miterlimit: 4; fill: rgb(255,255,255); fill-rule: nonzero; opacity: 1;"  transform=" translate(-388.63, -300.68)" d="m 391.64977 300.67744 c 0 -0.68455 -0.28069 -1.24895 -0.84307 -1.69219 c -0.56137 -0.44325 -1.2853 -0.66436 -2.17178 -0.66436 c -0.89355 0 -1.62253 0.22313 -2.18793 0.66941 c -0.56541 0.44727 -0.84913 1.00965 -0.84913 1.68714 c 0 0.70575 0.27766 1.27822 0.83297 1.7134 c 0.5543 0.43616 1.28934 0.65425 2.20409 0.65425 c 0.90768 0 1.63666 -0.21809 2.18793 -0.65425 c 0.55128 -0.43518 0.82692 -1.00765 0.82692 -1.7134 m 1.34789 0.005 c 0 1.08638 -0.46343 1.97085 -1.3903 2.6544 c -0.79157 0.58257 -1.78104 0.87335 -2.96638 0.87335 c -1.18736 0 -2.17986 -0.29078 -2.9785 -0.87335 c -0.92687 -0.67648 -1.39131 -1.56094 -1.39131 -2.6544 c 0 -1.07833 0.46747 -1.95572 1.40242 -2.63219 c 0.81984 -0.5957 1.80931 -0.89457 2.96739 -0.89457 c 1.15 0 2.13543 0.29887 2.95527 0.89457 c 0.93495 0.68353 1.40141 1.56094 1.40141 2.63219" stroke-linecap="round" />
</g>
<g transform="matrix(1 0 0 1 207.87 53.47)" id="path4256"  >
<path style="stroke: none; stroke-width: 1; stroke-dasharray: none; stroke-linecap: butt; stroke-dashoffset: 0; stroke-linejoin: miter; stroke-miterlimit: 4; fill: rgb(255,255,255); fill-rule: nonzero; opacity: 1;"  transform=" translate(-402.87, -300.47)" d="m 406.08012 303.78921 l -6.41842 0 l 0 -6.63347 l 1.29439 0 l 0 5.46832 l 5.12403 0 l 0 1.16515 z" stroke-linecap="round" />
</g>
<g transform="matrix(1 0 0 1 222.11 53.68)" id="path4260"  >
<path style="stroke: none; stroke-width: 1; stroke-dasharray: none; stroke-linecap: butt; stroke-dashoffset: 0; stroke-linejoin: miter; stroke-miterlimit: 4; fill: rgb(255,255,255); fill-rule: nonzero; opacity: 1;"  transform=" translate(-417.11, -300.68)" d="m 420.12274 300.67744 c 0 -0.68455 -0.28069 -1.24895 -0.84307 -1.69219 c -0.56137 -0.44325 -1.28529 -0.66436 -2.17178 -0.66436 c -0.89355 0 -1.62252 0.22313 -2.18793 0.66941 c -0.56541 0.44727 -0.84913 1.00965 -0.84913 1.68714 c 0 0.70575 0.27766 1.27822 0.83297 1.7134 c 0.55431 0.43616 1.28934 0.65425 2.20409 0.65425 c 0.90769 0 1.63666 -0.21809 2.18794 -0.65425 c 0.55127 -0.43518 0.82691 -1.00765 0.82691 -1.7134 m 1.3479 0.005 c 0 1.08638 -0.46344 1.97085 -1.39031 2.6544 c -0.79157 0.58257 -1.78104 0.87335 -2.96638 0.87335 c -1.18736 0 -2.17986 -0.29078 -2.9785 -0.87335 c -0.92687 -0.67648 -1.39131 -1.56094 -1.39131 -2.6544 c 0 -1.07833 0.46747 -1.95572 1.40242 -2.63219 c 0.81984 -0.5957 1.80931 -0.89457 2.96739 -0.89457 c 1.15 0 2.13543 0.29887 2.95528 0.89457 c 0.93494 0.68353 1.40141 1.56094 1.40141 2.63219" stroke-linecap="round" />
</g>
<g transform="matrix(1 0 0 1 236.34 53.68)" id="path4264"  >
<path style="stroke: none; stroke-width: 1; stroke-dasharray: none; stroke-linecap: butt; stroke-dashoffset: 0; stroke-linejoin: miter; stroke-miterlimit: 4; fill: rgb(255,255,255); fill-rule: nonzero; opacity: 1;"  transform=" translate(-431.34, -300.68)" d="m 435.68586 300.3917 l 0 0.20395 c 0 1.0763 -0.39376 1.94764 -1.1813 2.61401 c -0.78753 0.66739 -1.83556 1.00057 -3.14408 1.00057 c -1.18029 0 -2.16875 -0.29078 -2.96739 -0.87336 c -0.92687 -0.67646 -1.39132 -1.56092 -1.39132 -2.65438 c 0 -1.07833 0.46445 -1.95472 1.39132 -2.63118 c 0.81378 -0.59671 1.82647 -0.89558 3.04311 -0.89558 c 1.46704 0 2.68166 0.51493 3.64488 1.54175 l -1.22068 0.60479 c -0.67647 -0.65526 -1.51247 -0.98139 -2.50598 -0.98139 c -0.87941 0 -1.60233 0.22314 -2.17178 0.6694 c -0.56945 0.44829 -0.85417 1.00967 -0.85417 1.68715 c 0 0.69969 0.27766 1.26914 0.83297 1.70834 c 0.5543 0.43921 1.28631 0.65931 2.19298 0.65931 c 1.36203 0 2.26669 -0.49573 2.71296 -1.48823 l -2.98759 0 l 0 -1.16515 l 4.60607 0 z" stroke-linecap="round" />
</g>
<g transform="matrix(1 0 0 1 250.58 53.47)" id="path4266"  >
<path style="stroke: none; stroke-width: 1; stroke-dasharray: none; stroke-linecap: butt; stroke-dashoffset: 0; stroke-linejoin: miter; stroke-miterlimit: 4; fill: rgb(255,255,255); fill-rule: nonzero; opacity: 1;"  transform=" translate(-445.58, -300.47)" d="m 446.22753 303.78921 l -1.29439 0 l 0 -6.63347 l 1.29439 0 l 0 6.63347 z" stroke-linecap="round" />
</g>
<g transform="matrix(1 0 0 1 264.81 53.47)" id="path4270"  >
<path style="stroke: none; stroke-width: 1; stroke-dasharray: none; stroke-linecap: butt; stroke-dashoffset: 0; stroke-linejoin: miter; stroke-miterlimit: 4; fill: rgb(255,255,255); fill-rule: nonzero; opacity: 1;"  transform=" translate(-459.82, -300.47)" d="m 463.38746 303.78921 l -7.14132 0 l 0 -6.63347 l 6.89295 0 l 0 1.16415 l -5.59857 0 l 0 1.43472 l 3.89426 0 l 0 1.16515 l -3.89426 0 l 0 1.7043 l 5.84694 0 l 0 1.16515 z" stroke-linecap="round" />
</g>
<g transform="matrix(1 0 0 1 279.05 53.63)" id="path4274"  >
<path style="stroke: none; stroke-width: 1; stroke-dasharray: none; stroke-linecap: butt; stroke-dashoffset: 0; stroke-linejoin: miter; stroke-miterlimit: 4; fill: rgb(255,255,255); fill-rule: nonzero; opacity: 1;"  transform=" translate(-474.05, -300.63)" d="m 476.80411 298.96809 c -0.86225 -0.45334 -1.80123 -0.68052 -2.81594 -0.68052 c -1.4741 0 -2.21116 0.26353 -2.21116 0.78754 c 0 0.30996 0.27665 0.51089 0.83096 0.60479 c 0.75522 0.0646 1.51045 0.13327 2.26466 0.20496 c 1.0864 0.108 1.8598 0.30189 2.3202 0.58156 c 0.50988 0.30997 0.76533 0.78148 0.76533 1.41454 c 0 0.7118 -0.31805 1.26208 -0.95413 1.64978 c -0.6371 0.38771 -1.55892 0.58257 -2.76748 0.58257 c -1.70431 0 -3.06735 -0.38871 -4.08812 -1.16514 l 0.70172 -0.91677 c 0.91273 0.64012 2.03446 0.95917 3.36519 0.95917 c 0.74816 0 1.3267 -0.0939 1.73662 -0.28573 c 0.40992 -0.18982 0.61488 -0.44324 0.61488 -0.76028 c 0 -0.35136 -0.2514 -0.59974 -0.75522 -0.74411 c -0.28069 -0.0788 -0.71585 -0.13328 -1.30549 -0.16155 c -0.92081 -0.0434 -1.48521 -0.0747 -1.6932 -0.0969 c -0.81985 -0.0788 -1.42362 -0.25545 -1.81234 -0.52805 c -0.38872 -0.27363 -0.58258 -0.67244 -0.58258 -1.19848 c 0 -0.63203 0.31098 -1.13385 0.93293 -1.50438 c 0.62195 -0.36954 1.4943 -0.55532 2.61603 -0.55532 c 1.49531 0 2.70791 0.32309 3.63579 0.97028 l -0.79865 0.84206 z" stroke-linecap="round" />
</g>
<g transform="matrix(1 0 0 1 81.1 31.3)" id="path4278"  >
<path style="stroke: none; stroke-width: 1; stroke-dasharray: none; stroke-linecap: butt; stroke-dashoffset: 0; stroke-linejoin: miter; stroke-miterlimit: 4; fill: rgb(255,255,255); fill-rule: nonzero; opacity: 1;"  transform=" translate(-276.11, -278.3)" d="m 271.3498 263.07007 l 19.53103 0 c 0 0 -0.3973 2.22429 -3.42353 2.22429 l -16.61364 0 c -3.49115 0 -5.71856 1.35395 -6.68011 4.06186 c -0.26944 0.83802 -0.40469 1.5791 -0.40469 2.22428 c 0 1.73965 0.77664 3.28846 2.32885 4.64141 c 1.23099 0.83701 2.30983 1.28934 3.23755 1.35295 l 14.06607 0 c 1.77199 0.19486 3.32315 0.83801 4.65664 1.9345 c 1.38209 1.25602 2.22529 2.54737 2.52855 3.86801 l 0.20393 1.25703 l 0 2.03042 c -0.20393 1.58013 -0.97951 3.12794 -2.32779 4.64243 c -1.09785 0.99855 -2.51376 1.70835 -4.25088 2.12633 l -2.2253 0.0969 l -20.64579 0 c 0 0 0.25042 -2.12736 3.31892 -2.12736 l 16.81968 0 c 3.71094 0 6.00492 -1.45087 6.88193 -4.35062 l 0.20182 -1.5468 c 0 -2.46762 -1.28171 -4.27188 -3.84513 -5.41683 l -1.82166 -0.38569 l -12.85197 0 c -1.7889 0.0636 -3.50807 -0.41901 -5.16172 -1.45088 c -2.29397 -1.85273 -3.44043 -4.10931 -3.44043 -6.76978 c 0 -2.48074 1.04608 -4.70501 3.13718 -6.67082 c 1.56807 -1.16212 3.82823 -1.74166 6.78049 -1.74166" stroke-linecap="round" />
</g>
<g transform="matrix(1 0 0 1 116.98 31.35)" id="path4282"  >
<path style="stroke: none; stroke-width: 1; stroke-dasharray: none; stroke-linecap: butt; stroke-dashoffset: 0; stroke-linejoin: miter; stroke-miterlimit: 4; fill: rgb(255,255,255); fill-rule: nonzero; opacity: 1;"  transform=" translate(-311.98, -278.35)" d="m 298.72252 276.51119 l 26.71621 0 l 0 -0.0969 c -0.38779 -2.40098 -1.0968 -4.23755 -2.12597 -5.51174 c -1.50043 -2.04659 -3.45734 -3.49746 -5.86861 -4.35063 c -1.99072 -0.67748 -3.77856 -1.03187 -5.36353 -1.06418 c -1.33243 0 -3.25446 0.3554 -5.76822 1.06418 c -1.63569 0.70979 -3.25553 1.83758 -4.8574 3.38438 c -1.82271 2.35352 -2.73248 4.54449 -2.73248 6.57491 m 12.95341 -13.34468 c 4.65452 0 8.66872 1.4832 12.04258 4.44857 l 1.61878 1.9335 c 1.75509 2.57968 2.63211 5.41582 2.63211 8.51043 l 0 0.67647 l -29.4487 0 l 0 0.48464 c 0 2.59381 0.97634 5.14018 2.9343 7.63909 c 2.19148 2.01427 4.14944 3.23899 5.86966 3.67516 c 1.72022 0.51391 3.171 0.77239 4.35127 0.77239 c 5.91932 0 10.17021 -2.41713 12.75054 -7.25239 c 0.21449 -0.45232 0.37193 -0.75119 0.52937 -1.30246 c 0.87491 -2.26063 2.81068 -1.79215 2.81068 -1.79215 l 0 0.19385 c 0 1.48219 -0.80939 3.57824 -2.42923 6.28514 c -1.87131 2.33737 -4.30054 4.07701 -7.28662 5.22197 c -2.17563 0.57954 -3.89585 0.86931 -5.16066 0.86931 l -1.61983 0 c -3.03469 0 -6.07149 -0.93292 -9.10723 -2.80382 c -2.49579 -2.15966 -3.98144 -3.8357 -4.4527 -5.02811 c -1.14752 -2.41713 -1.72128 -4.86758 -1.72128 -7.34932 c 0 -2.4656 0.6752 -5.07657 2.02454 -7.83295 c 1.77093 -2.86743 4.43579 -4.96348 7.99563 -6.28412 c 1.83751 -0.51695 3.72679 -0.87033 5.66679 -1.0652" stroke-linecap="round" />
</g>
<g transform="matrix(1 0 0 1 258.45 31.35)" id="path4286"  >
<path style="stroke: none; stroke-width: 1; stroke-dasharray: none; stroke-linecap: butt; stroke-dashoffset: 0; stroke-linejoin: miter; stroke-miterlimit: 4; fill: rgb(255,255,255); fill-rule: nonzero; opacity: 1;"  transform=" translate(-453.45, -278.35)" d="m 440.19431 276.51119 l 26.71622 0 l 0 -0.0969 c -0.38884 -2.40098 -1.0968 -4.23755 -2.12597 -5.51174 c -1.50043 -2.04659 -3.45734 -3.49746 -5.86861 -4.35063 c -1.99072 -0.67748 -3.77856 -1.03187 -5.36353 -1.06418 c -1.33243 0 -3.25552 0.3554 -5.76822 1.06418 c -1.63675 0.70979 -3.25553 1.83758 -4.85846 3.38438 c -1.82165 2.35352 -2.73143 4.54449 -2.73143 6.57491 m 12.95342 -13.34469 c 4.65452 0 8.66872 1.4832 12.04153 4.44858 l 1.61983 1.9335 c 1.75403 2.57967 2.63105 5.41581 2.63105 8.51042 l 0 0.67648 l -29.4487 0 l 0 0.48464 c 0 2.59381 0.9774 5.14017 2.9343 7.63908 c 2.19254 2.01428 4.14945 3.23899 5.87072 3.67517 c 1.72022 0.51391 3.171 0.77238 4.35127 0.77238 c 5.91932 0 10.17021 -2.41712 12.75054 -7.25238 c 0.21449 -0.45233 0.37193 -0.75119 0.52937 -1.30247 c 0.87385 -2.26062 2.81068 -1.79215 2.81068 -1.79215 l 0 0.19385 c 0 1.48219 -0.80939 3.57824 -2.42923 6.28514 c -1.87237 2.33738 -4.30054 4.07701 -7.28662 5.22198 c -2.17563 0.57953 -3.89691 0.86931 -5.16066 0.86931 l -1.61983 0 c -3.03575 0 -6.07149 -0.93293 -9.10723 -2.80383 c -2.49579 -2.15966 -3.98144 -3.8357 -4.45376 -5.02811 c -1.14646 -2.41712 -1.72022 -4.86757 -1.72022 -7.34931 c 0 -2.4656 0.6752 -5.07658 2.02454 -7.83295 c 1.77093 -2.86744 4.43474 -4.96349 7.99563 -6.28413 c 1.83751 -0.51695 3.72679 -0.87032 5.66679 -1.0652" stroke-linecap="round" />
</g>
<g transform="matrix(1 0 0 1 154.06 31.25)" id="path4290"  >
<path style="stroke: none; stroke-width: 1; stroke-dasharray: none; stroke-linecap: butt; stroke-dashoffset: 0; stroke-linejoin: miter; stroke-miterlimit: 4; fill: rgb(255,255,255); fill-rule: nonzero; opacity: 1;"  transform=" translate(-349.07, -278.26)" d="m 335.40479 265.56566 l 0 4.37083 c 0.62448 -0.9501 1.53425 -1.98298 2.73248 -3.09462 c 2.04144 -1.46602 3.25447 -2.20812 3.64332 -2.22428 c 2.15872 -1.03087 4.89121 -1.5478 8.19745 -1.5478 c 3.22171 0.24332 6.18877 1.21057 8.90541 2.90075 c 2.79905 1.96782 4.72214 4.70703 5.76928 8.22065 c 0.26944 0.96625 0.40469 2.54536 0.40469 4.73732 l 0 14.60171 c 0 0 -2.32884 0.27968 -2.32884 -2.82401 l 0 -12.06746 c 0 -6.1236 -2.93431 -10.28239 -8.80503 -12.47335 c -0.94358 -0.33925 -2.56236 -0.59671 -4.85634 -0.77441 c -2.02347 0 -4.28469 0.51695 -6.78049 1.5468 c -1.50149 0.87133 -2.47995 1.54882 -2.93536 2.03143 c -1.61878 1.45089 -2.79905 3.449 -3.54082 5.99537 c -0.2705 1.4832 -0.40575 3.25616 -0.40575 5.31788 l 0 13.24775 c 0 0 -2.32673 -0.0394 -2.32673 -2.72203 c 0 -3.51564 0 -27.83433 -0.001 -27.83433 c 0 0 2.32779 0.16256 2.32779 2.5918" stroke-linecap="round" />
</g>
<g transform="matrix(1 0 0 1 221.83 31.25)" id="path4294"  >
<path style="stroke: none; stroke-width: 1; stroke-dasharray: none; stroke-linecap: butt; stroke-dashoffset: 0; stroke-linejoin: miter; stroke-miterlimit: 4; fill: rgb(255,255,255); fill-rule: nonzero; opacity: 1;"  transform=" translate(-416.83, -278.26)" d="m 403.16935 265.56566 l 0 4.37083 c 0.62342 -0.9501 1.53425 -1.98298 2.73249 -3.09462 c 2.04038 -1.46602 3.25446 -2.20812 3.64225 -2.22428 c 2.15979 -1.03087 4.89121 -1.5478 8.19746 -1.5478 c 3.22171 0.24332 6.18982 1.21057 8.90646 2.90075 c 2.79905 1.96782 4.72109 4.70703 5.76822 8.22065 c 0.26945 0.96625 0.4047 2.54536 0.4047 4.73732 l 0 14.60171 c 0 0 -2.32779 0.27968 -2.32779 -2.82401 l 0 -12.06746 c 0 -6.1236 -2.9343 -10.28239 -8.80502 -12.47335 c -0.94464 -0.33925 -2.56237 -0.59671 -4.8574 -0.77441 c -2.02348 0 -4.2847 0.51695 -6.77944 1.5468 c -1.50149 0.87133 -2.47994 1.54882 -2.93641 2.03143 c -1.61773 1.45089 -2.79906 3.449 -3.54082 5.99537 c -0.2705 1.4832 -0.4047 3.25616 -0.4047 5.31788 l 0 13.24775 c 0 0 -2.32779 -0.0394 -2.32779 -2.72203 l 0 -27.83433 c 0 0 2.32779 0.16256 2.32779 2.5918" stroke-linecap="round" />
</g>
<g transform="matrix(1 0 0 1 183.71 25.74)" id="path4298"  >
<path style="stroke: none; stroke-width: 1; stroke-dasharray: none; stroke-linecap: butt; stroke-dashoffset: 0; stroke-linejoin: miter; stroke-miterlimit: 4; fill: rgb(255,255,255); fill-rule: nonzero; opacity: 1;"  transform=" translate(-378.72, -272.74)" d="m 372.49158 255.31821 c 0 2.49891 0 7.65525 0.001 7.65525 l 13.86425 0 c 0 0 -0.13314 2.22428 -3.23017 2.22428 l -10.63408 0 l 0 12.47536 c 0.0328 1.7558 0.50508 3.72161 1.41696 5.89642 c 0.52199 1.32265 1.97276 3.031 4.35127 5.12705 c 2.14076 1.26814 3.60105 1.94764 5.70588 2.29093 c 2.39436 0.32611 3.29991 2.54334 3.29991 2.54334 l -0.0993 0 c -4.9937 0 -9.24353 -1.70835 -12.75265 -5.12504 c -2.83284 -3.15823 -4.24981 -7.05854 -4.24981 -11.69995 l 0 -24.75586 c 0 0 2.32674 0.26756 2.32674 3.36822" stroke-linecap="round" />
</g>
<g transform="matrix(1 0 0 1 198.51 31.3)" id="path4302"  >
<path style="stroke: none; stroke-width: 1; stroke-dasharray: none; stroke-linecap: butt; stroke-dashoffset: 0; stroke-linejoin: miter; stroke-miterlimit: 4; fill: rgb(255,255,255); fill-rule: nonzero; opacity: 1;"  transform=" translate(-393.51, -278.3)" d="m 394.65333 266.06452 l 0 27.46579 c 0 0 -2.27707 -0.108 -2.27707 -3.30664 l 0 -27.1538 c 0 0 2.27707 0.0141 2.27707 2.99465" stroke-linecap="round" />
</g>
<g transform="matrix(1 0 0 1 280.01 25.7)" id="path4306"  >
<path style="stroke: none; stroke-width: 1; stroke-dasharray: none; stroke-linecap: butt; stroke-dashoffset: 0; stroke-linejoin: miter; stroke-miterlimit: 4; fill: rgb(255,255,255); fill-rule: nonzero; opacity: 1;"  transform=" translate(-475.02, -272.7)" d="m 476.15533 254.86951 l 0 38.66091 c 0 0 -2.27707 -0.108 -2.27707 -3.30663 l 0 -38.34792 c 0 0 2.27707 0.0141 2.27707 2.99364" stroke-linecap="round" />
</g>
<g transform="matrix(1 0 0 1 198.51 10.87)" id="path4310"  >
<path style="stroke: none; stroke-width: 1; stroke-dasharray: none; stroke-linecap: butt; stroke-dashoffset: 0; stroke-linejoin: miter; stroke-miterlimit: 4; fill: rgb(255,255,255); fill-rule: nonzero; opacity: 1;"  transform=" translate(-393.51, -257.87)" d="m 394.65333 258.359 l 0 2.00922 c 0 0 -2.27707 -0.108 -2.27707 -3.30663 l 0 -1.69623 c 0 0 2.27707 0.0141 2.27707 2.99364" stroke-linecap="round" />
</g>
<g transform="matrix(1 0 -0.57 0.82 33.02 54.02)" id="rect4312"  >
<rect style="stroke: rgb(164,164,165); stroke-width: 0; stroke-dasharray: none; stroke-linecap: square; stroke-dashoffset: 0; stroke-linejoin: miter; stroke-miterlimit: 4; fill: rgb(42,69,124); fill-rule: nonzero; opacity: 1;"  x="-24.359211" y="-2.85979175" rx="0" ry="0" width="48.718422" height="5.7195835" />
</g>
<g transform="matrix(1 0 -0.56 0.83 18.07 39.5)" id="rect4314"  >
<rect style="stroke: rgb(164,164,165); stroke-width: 0; stroke-dasharray: none; stroke-linecap: square; stroke-dashoffset: 0; stroke-linejoin: miter; stroke-miterlimit: 4; fill: rgb(42,69,124); fill-rule: nonzero; opacity: 1;"  x="-9.286956" y="-2.84261205" rx="0" ry="0" width="18.573912" height="5.6852241" />
</g>
<g transform="matrix(1 0 -0.56 0.83 48.13 39.33)" id="rect4316"  >
<rect style="stroke: rgb(164,164,165); stroke-width: 0; stroke-dasharray: none; stroke-linecap: square; stroke-dashoffset: 0; stroke-linejoin: miter; stroke-miterlimit: 4; fill: rgb(42,69,124); fill-rule: nonzero; opacity: 1;"  x="-9.286956" y="-2.84261205" rx="0" ry="0" width="18.573912" height="5.6852241" />
</g>
<g transform="matrix(1 0 -0.57 0.82 33.02 46.72)" id="rect4318"  >
<rect style="stroke: rgb(164,164,165); stroke-width: 0; stroke-dasharray: none; stroke-linecap: square; stroke-dashoffset: 0; stroke-linejoin: miter; stroke-miterlimit: 4; fill: rgb(42,69,124); fill-rule: nonzero; opacity: 1;"  x="-24.359211" y="-2.85979175" rx="0" ry="0" width="48.718422" height="5.7195835" />
</g>
<g transform="matrix(1 0 -0.57 0.82 33.02 32.11)" id="rect4320"  >
<rect style="stroke: rgb(164,164,165); stroke-width: 0; stroke-dasharray: none; stroke-linecap: square; stroke-dashoffset: 0; stroke-linejoin: miter; stroke-miterlimit: 4; fill: rgb(67,107,191); fill-rule: nonzero; opacity: 1;"  x="-24.359211" y="-2.85979175" rx="0" ry="0" width="48.718422" height="5.7195835" />
</g>
<g transform="matrix(1 0 -0.56 0.83 18.07 17.59)" id="rect4322"  >
<rect style="stroke: rgb(164,164,165); stroke-width: 0; stroke-dasharray: none; stroke-linecap: square; stroke-dashoffset: 0; stroke-linejoin: miter; stroke-miterlimit: 4; fill: rgb(67,107,191); fill-rule: nonzero; opacity: 1;"  x="-9.286956" y="-2.84261205" rx="0" ry="0" width="18.573912" height="5.6852241" />
</g>
<g transform="matrix(1 0 -0.56 0.83 48.13 17.43)" id="rect4324"  >
<rect style="stroke: rgb(164,164,165); stroke-width: 0; stroke-dasharray: none; stroke-linecap: square; stroke-dashoffset: 0; stroke-linejoin: miter; stroke-miterlimit: 4; fill: rgb(67,107,191); fill-rule: nonzero; opacity: 1;"  x="-9.286956" y="-2.84261205" rx="0" ry="0" width="18.573912" height="5.6852241" />
</g>
<g transform="matrix(1 0 -0.57 0.82 33.02 24.81)" id="rect4326"  >
<rect style="stroke: rgb(164,164,165); stroke-width: 0; stroke-dasharray: none; stroke-linecap: square; stroke-dashoffset: 0; stroke-linejoin: miter; stroke-miterlimit: 4; fill: rgb(67,107,191); fill-rule: nonzero; opacity: 1;"  x="-24.359211" y="-2.85979175" rx="0" ry="0" width="48.718422" height="5.7195835" />
</g>
</svg>